# xmcd
#
# Track frame offsets: 
#        150
#        38752
#        72060
#        103950
#        139951
#        179016
#        215999
#        249060
#
# Disc length: 3653 seconds
#
# Revision: 0
# Processed by: cddbd v1.5.2PL0 Copyright (c) Steve Scherf et al.
# Submitted via: ExactAudioCopyFreeDBPlugin 1.0
#
DISCID=790e4308
DTITLE=Hazmat Modine - Live
DYEAR=2014
DGENRE=Blues
TTITLE0=Everybody loves you
TTITLE1=Something you got
TTITLE2=Walking stick
TTITLE3=The tide
TTITLE4=So glad
TTITLE5=Baby please don't go
TTITLE6=Bahamut
TTITLE7=Catfish blues
EXTD=
EXTT0=
EXTT1=
EXTT2=
EXTT3=
EXTT4=
EXTT5=
EXTT6=
EXTT7=
PLAYORDER=
